# xmcd
# 
# Track frame offsets:
#     182
#     30675
#     59962
#     103487
#     136775
#     194090
# 
# Disc length: 2710
# 
# Revision: 1
# Processed by: cddbd v1.5.2PL0 Copyright (c) Steve Scherf et al.
# Submitted via: BonkEnc v1.0.8
# 
DISCID=600a9406
DTITLE=Dexter Gordon - American Classic
DYEAR=1982
DGENRE=Jazz
TTITLE0=Jumpin' Blues
TTITLE1=Besame Mucho
TTITLE2=For Soul Sister
TTITLE3=Sticky Wicket
TTITLE4=Skylark
TTITLE5=An Interview With Dexter Gordon
EXTD=
EXTT0=
EXTT1=
EXTT2=
EXTT3=
EXTT4=
EXTT5=
PLAYORDER=
